<svg xmlns="http://www.w3.org/2000/svg" width="24" height="24" viewBox="0 0 24 24"><g class="nc-icon-wrapper" stroke-linecap="round" stroke-linejoin="round" stroke-width="1" transform="translate(0.5 0.5)" fill="none" stroke="#000000"><path d=" M7,11.0004597v9.9995422C7,22.1045704,6.1045704,23,5.0000019,23H4.9999981C3.8954296,23,3,22.1045704,3,21.0000019v-9.9995422" stroke="#000000"></path> <path d=" M3,4.9999599V2.9999981C3,1.8954296,3.8954296,1,4.9999981,1h0.0000038C6.1045704,1,7,1.8954296,7,2.9999981v1.9999619" stroke="#000000"></path> <path d="M22,13 c-4.125-1.9375-7.6875-2-12-2c-2.8333335,0-8,0-8,0V5c0,0,7.166667,0,10,0C18.666666,5,21.083334,6.5833335,22,13z"></path></g></svg>